<svg xmlns="http://www.w3.org/2000/svg" height="40" viewBox="0 -960 960 960" width="40"><path d="M461.999-563.333h218.668V-630H461.999v66.667Zm0 233.333h218.668v-66.667H461.999V-330ZM352-535.334q25.3 0 43.316-18.016 18.017-18.017 18.017-43.317 0-25.299-18.017-43.316Q377.3-657.999 352-657.999q-25.3 0-43.317 18.016-18.016 18.017-18.016 43.316 0 25.3 18.016 43.317Q326.7-535.334 352-535.334Zm0 233.333q25.3 0 43.316-18.016 18.017-18.017 18.017-43.316 0-25.3-18.017-43.317Q377.3-424.666 352-424.666q-25.3 0-43.317 18.016-18.016 18.017-18.016 43.317 0 25.299 18.016 43.316Q326.7-302.001 352-302.001ZM186.666-120q-27 0-46.833-19.833T120-186.666v-586.668q0-27 19.833-46.833T186.666-840h586.668q27 0 46.833 19.833T840-773.334v586.668q0 27-19.833 46.833T773.334-120H186.666Zm0-66.666h586.668v-586.668H186.666v586.668Zm0-586.668v586.668-586.668Z"/></svg>