<svg height="40" viewBox="0 -960 960 960" width="40" xmlns="http://www.w3.org/2000/svg">
  <defs></defs>
  <g>
    <path d="M 198.666 -194.667 L 198.666 -851.334 C 198.666 -869.334 205.277 -884.945 218.499 -898.167 C 231.721 -911.389 247.332 -918 265.332 -918 L 692 -918 C 710 -918 725.611 -911.389 738.833 -898.167 C 752.055 -884.945 758.666 -869.334 758.666 -851.334 L 758.666 -194.667 L 478.666 -314.667 L 198.666 -194.667 Z M 265.332 -296 L 478.666 -386.667 L 692 -296 L 517.333 -339.334 L 475.999 -359.334 L 265.332 -296 Z M 614.665 -596.667 L 641.333 -683.334 C 657.67 -677.888 807.259 -717.179 669.332 -482.001 C 682.54 -413.318 617.937 -579.654 614.665 -596.667 Z" fill="white"></path>
  </g>
</svg>