<svg xmlns="http://www.w3.org/2000/svg" height="40" viewBox="0 -960 960 960" width="40"><path d="M480-480Zm.177 400q-82.822 0-155.666-31.5t-127.178-85.833Q143-251.667 111.5-324.511T80-480.177Q80-563 111.566-636q31.566-73 85.68-127 54.114-54 127.267-85.5Q397.667-880 480-880q44.865 0 86.599 9.5t80.068 26.833V-769q-37-21.334-78.834-32.834-41.833-11.5-87.686-11.5-138.603 0-236.042 97.167t-97.439 235.843q0 138.677 97.491 236.167 97.49 97.491 236.167 97.491 138.676 0 235.843-97.396T813.334-480q0-33.855-6.5-65.594-6.5-31.739-18.834-61.073h71.333q10.334 30.611 15.5 61.75Q880-513.778 880-480q0 82.333-31.5 155.487Q817-251.36 763-197.246q-54 54.114-127 85.68Q563-80 480.177-80Zm326.49-600v-86.667H720v-66.666h86.667V-920h66.666v86.667H960v66.666h-86.667V-680h-66.666ZM624-528.667q23.333 0 39.667-16.333Q680-561.333 680-584.667q0-23.333-16.333-39.666-16.334-16.334-39.667-16.334-23.333 0-39.666 16.334Q568-608 568-584.667q0 23.334 16.334 39.667 16.333 16.333 39.666 16.333Zm-288 0q23.333 0 39.666-16.333Q392-561.333 392-584.667q0-23.333-16.334-39.666-16.333-16.334-39.666-16.334t-39.667 16.334Q280-608 280-584.667q0 23.334 16.333 39.667 16.334 16.333 39.667 16.333Zm144 268q66.667 0 122.167-36.5t80.5-98.166H277.333q25.667 61.666 80.834 98.166 55.166 36.5 121.833 36.5Z"/></svg>