<svg xmlns="http://www.w3.org/2000/svg" height="40" viewBox="0 -960 960 960" width="40"><path d="M333.333-400h54.001q13.883 0 23.274-9.833 9.392-9.834 9.392-23.5v-40h-33.333v40h-53.334v-93.334h85.334q0-13.666-9.2-23.5-9.2-9.833-22.8-9.833h-53.334q-14.166 0-23.75 9.583-9.583 9.584-9.583 23.75v93.334q0 14.166 9.583 23.75 9.584 9.583 23.75 9.583Zm130 0h33.334v-160h-33.334v160ZM540-400h33.333v-60H640v-33.333h-66.667v-33.334H660V-560H540v160ZM186.666-120q-27 0-46.833-19.833T120-186.666v-586.668q0-27 19.833-46.833T186.666-840h586.668q27 0 46.833 19.833T840-773.334v586.668q0 27-19.833 46.833T773.334-120H186.666Zm0-66.666h586.668v-586.668H186.666v586.668Zm0-586.668v586.668-586.668Z"/></svg>