<svg xmlns="http://www.w3.org/2000/svg" height="40" viewBox="0 -960 960 960" width="40"><path d="M480-299q102.3-82.573 154.484-158.953 52.183-76.38 52.183-142.714 0-58-21.167-98.5t-52.173-65.92q-31.006-25.42-67.18-36.834-36.174-11.413-66.147-11.413-29.973 0-66.147 11.413-36.174 11.414-67.18 36.834-31.006 25.42-52.173 65.92t-21.167 98.5q0 66.334 52.184 142.714Q377.7-381.573 480-299Zm0 84.333Q341.667-318 274.167-413.467q-67.5-95.466-67.5-187.036 0-69.164 24.833-121.33 24.833-52.167 64.167-87.5 39.333-35.334 87.986-53Q432.306-880 479.987-880q47.68 0 96.346 17.667 48.667 17.666 88 53Q703.667-774 728.5-721.811q24.833 52.188 24.833 121.448 0 91.696-67.5 187.029Q618.333-318 480-214.667Zm.059-318.667q30.274 0 51.774-21.559t21.5-51.833q0-30.274-21.559-51.774T479.941-680q-30.274 0-51.774 21.559t-21.5 51.833q0 30.274 21.559 51.774t51.833 21.5ZM206.667-80v-66.666h546.666V-80H206.667ZM480-600.667Z"/></svg>