<svg xmlns="http://www.w3.org/2000/svg" height="48" viewBox="0 -960 960 960" width="48"><path d="M140.109-142.804q-30.383 0-53.844-23.461-23.46-23.461-23.46-53.844v-519.782q0-30.721 23.46-54.132 23.461-23.412 53.844-23.412h269.087L481-745.391h338.891q30.721 0 54.132 23.46 23.412 23.461 23.412 53.844H448.326l-71.804-71.804H140.109v515.652l97.717-383.848h710.522l-100.761 394.5q-10.957 40.152-33.75 55.467-22.794 15.316-66.228 15.316h-607.5Zm80.739-77.305h547.717l75.087-310.434H295.696l-74.848 310.434Zm0 0 74.848-310.434-74.848 310.434Zm-80.739-447.978v-71.804 71.804Z"/></svg>